0
SECTION
2
HEADER
9
$INSUNITS
70
4
9
$ACADVER
1
AC1014
9
$HANDSEED
5
FFFF
0
ENDSEC
0
SECTION
2
TABLES
0
TABLE
2
VPORT
5
8
100
AcDbSymbolTable
0
ENDTAB
0
TABLE
2
LTYPE
5
5
100
AcDbSymbolTable
0
LTYPE
5
14
100
AcDbSymbolTableRecord
100
AcDbLinetypeTableRecord
2
BYBLOCK
70
0
0
LTYPE
5
15
100
AcDbSymbolTableRecord
100
AcDbLinetypeTableRecord
2
BYLAYER
70
0
0
ENDTAB
0
TABLE
2
LAYER
5
2
100
AcDbSymbolTable
70
2
0
LAYER
5
50
100
AcDbSymbolTableRecord
100
AcDbLayerTableRecord
2
0
70
0
6
CONTINUOUS
0
ENDTAB
0
TABLE
2
STYLE
5
3
100
AcDbSymbolTable
70
1
0
STYLE
5
11
100
AcDbSymbolTableRecord
100
AcDbTextStyleTableRecord
2
STANDARD
70
0
0
ENDTAB
0
TABLE
2
VIEW
5
6
100
AcDbSymbolTable
70
0
0
ENDTAB
0
TABLE
2
UCS
5
7
100
AcDbSymbolTable
70
0
0
ENDTAB
0
TABLE
2
APPID
5
9
100
AcDbSymbolTable
70
2
0
APPID
5
12
100
AcDbSymbolTableRecord
100
AcDbRegAppTableRecord
2
ACAD
70
0
0
ENDTAB
0
TABLE
2
DIMSTYLE
5
A
100
AcDbSymbolTable
70
1
0
ENDTAB
0
TABLE
2
BLOCK_RECORD
5
1
100
AcDbSymbolTable
70
1
0
BLOCK_RECORD
5
1F
100
AcDbSymbolTableRecord
100
AcDbBlockTableRecord
2
*MODEL_SPACE
0
BLOCK_RECORD
5
1B
100
AcDbSymbolTableRecord
100
AcDbBlockTableRecord
2
*PAPER_SPACE
0
ENDTAB
0
ENDSEC
0
SECTION
2
BLOCKS
0
BLOCK
5
20
100
AcDbEntity
100
AcDbBlockBegin
2
*MODEL_SPACE
0
ENDBLK
5
21
100
AcDbEntity
100
AcDbBlockEnd
0
BLOCK
5
1C
100
AcDbEntity
100
AcDbBlockBegin
2
*PAPER_SPACE
0
ENDBLK
5
1D
100
AcDbEntity
100
AcDbBlockEnd
0
ENDSEC
0
SECTION
2
ENTITIES
0
LWPOLYLINE
5
100
100
AcDbEntity
8
0
100
AcDbPolyline
90
8
70
1
43
0.0
10
160.77224040589999
20
-19.760155975186919
42
-0.41421356237309093
10
160.13138402394961
20
-19.461319736506898
10
159.78936388061351
20
-18.521627115695992
42
-0.41421356237298557
10
160.08820011929339
20
-17.880770733745649
10
162.90727798180814
20
-16.85471030370649
42
-0.41421356237313578
10
163.54813436375861
20
-17.153546542386483
10
163.8901545070762
20
-18.09323916314699
42
-0.41421356237306628
10
163.59131826836347
20
-18.73409554516741
0
LWPOLYLINE
5
101
100
AcDbEntity
8
0
100
AcDbPolyline
90
8
70
1
43
0.0
10
115.90191777191322
20
-36.091617816358841
42
-0.41421356237308926
10
115.26106138995821
20
-35.792781577688736
10
114.91904124652727
20
-34.853088956662297
42
-0.41421356237583878
10
115.21787748520175
20
-34.212232574705695
10
118.03695534434209
20
-33.186172145876291
42
-0.41421356236642565
10
118.67781172629036
20
-33.485008384541615
10
119.01983186972451
20
-34.424701005537116
42
-0.41421356237702051
10
118.72099563105671
20
-35.065557387498508
0
LWPOLYLINE
5
102
100
AcDbEntity
8
0
100
AcDbPolyline
90
117
70
1
43
0.0
10
122.79054673350616
20
-35.620965704166629
10
123.87978919375198
20
-35.848354519584674
10
64.130302178232228
20
-57.595389306487945
42
-0.087488663525857005
10
59.000000000138172
20
-58.499999999721346
10
12.726748006653654
20
-58.500000000170608
10
12.726748006653654
20
-50.999999999988923
10
7.7267480066536365
20
-50.999999999988923
10
7.7267480066536409
20
-58.500000000170608
10
-38.546503986830892
20
-58.500000000619863
42
-0.41333534049383408
10
-54.000069762417873
20
-42.999986353353165
10
-54.000062719079757
20
-35.00004951265737
42
-0.4142133045025439
10
-39.000000000000021
20
-19.999999999994806
10
-39.000000000000021
20
-43.5
10
25.166666666666657
20
-43.499999999609919
10
55.500000000000007
20
-43.500000006968705
10
59
20
-43.499999917208349
10
59
20
-19.999999999999996
10
79.708653367178101
20
-19.999999999999996
10
130.34106408123148
20
-1.5713096106071101
42
-0.41421356237127038
10
168.79244700459896
20
-19.501483934020701
10
157.2812124000144
20
-23.691230689822284
10
158.00081560079099
20
-22.774085974125096
10
156.87295953892323
20
-22.613203266956869
10
157.51734434475213
20
-21.673676384390099
10
156.38149779368629
20
-21.585386213988819
10
156.96436294777774
20
-20.606503813904531
10
155.82519334463043
20
-20.591168983518546
10
156.34414372904209
20
-19.576953503668317
10
155.20633216606382
20
-19.634637027405006
10
155.65923530235159
20
-18.589256096744073
10
154.52745729131445
20
-18.719720940631323
10
154.9124521033439
20
-17.647470253637259
10
153.79135836286085
20
-17.850180309646912
10
154.10686282436825
20
-16.755465974389672
10
153.00106016909274
20
-17.029588263420415
10
153.24577780457028
20
-15.916908695918998
10
152.1598102148069
20
-16.261316790686152
10
152.3327354269986
20
-15.135244229952502
10
151.27106537651284
20
-15.548522883719407
10
151.37148757862946
20
-14.413684603447312
10
150.33847769738642
20
-14.894135565577571
10
150.36598423305901
20
-13.755194859682788
10
149.36587938024053
20
-14.300843854116646
10
149.32035721921383
20
-13.162480874261714
10
148.35726704018199
20
-13.771085712239701
10
148.23890324278014
20
-12.637978236086873
10
147.31678528166285
20
-13.307038029784406
10
147.12606623011831
20
-12.183842239004019
10
146.24870966741139
20
-12.910607678215911
10
145.98641906721613
20
-11.801939025237033
10
145.15742914922816
20
-12.583423674882845
10
144.82464480871954
20
-11.493837917009234
10
144.04742803284137
20
-12.326830489035681
10
143.64551743425648
20
-11.260804967861858
10
142.92326755093259
20
-12.141882517114158
10
142.45388223113054
20
-11.103797760168339
10
141.7895671200537
20
-12.029339750005972
10
141.25463588399651
20
-11.023461470223008
10
140.65098535845323
20
-11.989664650081671
10
140.05270635333218
20
-11.020126217073363
10
139.51220094281456
20
-12.023020250837106
10
138.85303262539219
20
-11.093805705990052
10
138.37789338257005
20
-12.129269486954005
10
137.66054441685375
20
-11.244197172148834
10
137.25272379079297
20
-12.307975757530702
10
136.48014191755377
20
-11.470682624756384
10
136.14131573068403
20
-12.558404720169101
10
135.31667565455737
20
-11.772331386507023
10
135.04823621635848
20
-12.879527308544862
10
134.17492656030188
20
-12.14790391793526
10
133.97797694600558
20
-13.270023961061788
10
133.05958632672011
20
-12.595856910949355
10
132.93493584453705
20
-13.728290043213354
10
131.97523812607153
20
-13.114349630615434
10
131.92339899157042
20
-14.252442441370249
10
130.92633777770456
20
-13.701251479131983
10
130.94752300900853
20
-14.840327300898153
10
129.91719543813906
20
-14.354150750913476
10
130.0113179805885
20
-15.489528876808356
10
128.95195788970864
20
-15.070364542805681
10
129.11863097358736
20
-16.197379460572169
10
128.03459150054263
20
-15.846949778710375
10
128.27313023039775
20
-16.960970342307281
10
127.16886592590861
20
-16.680715303316109
10
127.47829009493273
20
-17.777163763291068
10
126.35833861789031
20
-17.568234995240228
10
126.73737673580162
20
-18.642605809683687
10
125.60634020705385
20
-18.505861845696195
10
126.0534347249225
20
-19.553740194479847
10
124.91596081617266
20
-19.489742944835207
10
125.42927452672315
20
-20.506822871054659
10
124.29003736224958
20
-20.515835314179007
10
124.8674609493399
20
-21.497937418254452
10
123.73114189901708
20
-21.579922520085837
10
124.37030260527087
20
-22.52301113381148
10
123.24157104781627
20
-22.677631999980751
10
123.93984242479198
20
-23.57783176995078
10
122.82333656028733
20
-23.804453030152768
10
123.57784926111832
20
-24.658064842420213
10
122.47815705165054
20
-24.955755261286615
10
123.28581062180648
20
-25.759271441815706
10
122.20745093854771
20
-26.126807745561031
10
123.06492655626778
20
-26.876926474012279
10
122.01233061046379
20
-27.312798377128146
10
122.91610472450678
20
-28.006437254746388
10
121.89359785868001
20
-28.508853666088644
10
122.83995666735242
20
-29.143162381940712
10
121.85174058154169
20
-29.710058764707167
10
122.83679529350535
20
-30.282430808220774
10
121.88693077957886
20
-30.911477663575766
10
122.90663359372866
20
-31.419561035250698
10
121.99902384871949
20
-32.108173474735445
10
123.04918458746668
20
-32.549880351013975
10
122.18755917449867
20
-33.295228718407735
10
123.26386250210882
20
-33.668744030989401
10
122.45176202482197
20
-34.467765529973832
10
123.54978518005566
20
-34.771554424320456
0
ENDSEC
0
SECTION
2
OBJECTS
0
DICTIONARY
5
C
100
AcDbDictionary
3
ACAD_GROUP
350
D
3
ACAD_MLINESTYLE
350
17
0
DICTIONARY
5
D
100
AcDbDictionary
0
DICTIONARY
5
1A
330
C
100
AcDbDictionary
0
DICTIONARY
5
17
100
AcDbDictionary
0
ENDSEC
0
EOF
