0
SECTION
2
HEADER
9
$INSUNITS
70
4
9
$ACADVER
1
AC1014
9
$HANDSEED
5
FFFF
0
ENDSEC
0
SECTION
2
TABLES
0
TABLE
2
VPORT
5
8
100
AcDbSymbolTable
0
ENDTAB
0
TABLE
2
LTYPE
5
5
100
AcDbSymbolTable
0
LTYPE
5
14
100
AcDbSymbolTableRecord
100
AcDbLinetypeTableRecord
2
BYBLOCK
70
0
0
LTYPE
5
15
100
AcDbSymbolTableRecord
100
AcDbLinetypeTableRecord
2
BYLAYER
70
0
0
ENDTAB
0
TABLE
2
LAYER
5
2
100
AcDbSymbolTable
70
2
0
LAYER
5
50
100
AcDbSymbolTableRecord
100
AcDbLayerTableRecord
2
0
70
0
6
CONTINUOUS
0
ENDTAB
0
TABLE
2
STYLE
5
3
100
AcDbSymbolTable
70
1
0
STYLE
5
11
100
AcDbSymbolTableRecord
100
AcDbTextStyleTableRecord
2
STANDARD
70
0
0
ENDTAB
0
TABLE
2
VIEW
5
6
100
AcDbSymbolTable
70
0
0
ENDTAB
0
TABLE
2
UCS
5
7
100
AcDbSymbolTable
70
0
0
ENDTAB
0
TABLE
2
APPID
5
9
100
AcDbSymbolTable
70
2
0
APPID
5
12
100
AcDbSymbolTableRecord
100
AcDbRegAppTableRecord
2
ACAD
70
0
0
ENDTAB
0
TABLE
2
DIMSTYLE
5
A
100
AcDbSymbolTable
70
1
0
ENDTAB
0
TABLE
2
BLOCK_RECORD
5
1
100
AcDbSymbolTable
70
1
0
BLOCK_RECORD
5
1F
100
AcDbSymbolTableRecord
100
AcDbBlockTableRecord
2
*MODEL_SPACE
0
BLOCK_RECORD
5
1B
100
AcDbSymbolTableRecord
100
AcDbBlockTableRecord
2
*PAPER_SPACE
0
ENDTAB
0
ENDSEC
0
SECTION
2
BLOCKS
0
BLOCK
5
20
100
AcDbEntity
100
AcDbBlockBegin
2
*MODEL_SPACE
0
ENDBLK
5
21
100
AcDbEntity
100
AcDbBlockEnd
0
BLOCK
5
1C
100
AcDbEntity
100
AcDbBlockBegin
2
*PAPER_SPACE
0
ENDBLK
5
1D
100
AcDbEntity
100
AcDbBlockEnd
0
ENDSEC
0
SECTION
2
ENTITIES
0
LWPOLYLINE
5
100
100
AcDbEntity
8
0
100
AcDbPolyline
90
3
70
1
43
0.0
10
7.346722462173048
20
46.114101615176573
10
3.3467224621730427
20
39.185898384901066
10
11.346722462173044
20
39.185898384901058
0
CIRCLE
5
101
100
AcDbEntity
8
0
100
AcDbCircle
10
-5.1532775378269537
20
42.650000000038808
30
0
40
3.4641016151377531
210
0
220
0
230
1
0
LWPOLYLINE
5
102
100
AcDbEntity
8
0
100
AcDbPolyline
90
3
70
1
43
0.0
10
19.846722462173048
20
39.185898384901058
10
23.846722462173048
20
46.114101615176573
10
15.846722462173046
20
46.114101615176573
0
CIRCLE
5
103
100
AcDbEntity
8
0
100
AcDbCircle
10
-17.653277537826956
20
42.65000000003883
30
0
40
3.4641016151377531
210
0
220
0
230
1
0
CIRCLE
5
104
100
AcDbEntity
8
0
100
AcDbCircle
10
-43.900000000000013
20
32.65000000003883
30
0
40
1.749999999999998
210
0
220
-0
230
1
0
CIRCLE
5
105
100
AcDbEntity
8
0
100
AcDbCircle
10
-43.899999999999999
20
-32.149999999961175
30
0
40
1.749999999999998
210
0
220
-0
230
1
0
CIRCLE
5
106
100
AcDbEntity
8
0
100
AcDbCircle
10
43.899999999999977
20
32.65000000003883
30
0
40
1.749999999999998
210
0
220
-0
230
1
0
CIRCLE
5
107
100
AcDbEntity
8
0
100
AcDbCircle
10
43.899999999999963
20
-32.149999999961175
30
0
40
1.749999999999998
210
0
220
-0
230
1
0
LWPOLYLINE
5
108
100
AcDbEntity
8
0
100
AcDbPolyline
90
4
70
1
43
0.0
10
39.350000000040346
20
25.650000000038823
10
-39.34999999995965
20
25.650000000038816
10
-39.34999999995965
20
-25.649999999961182
10
39.350000000040353
20
-25.649999999961185
0
LWPOLYLINE
5
109
100
AcDbEntity
8
0
100
AcDbPolyline
90
20
70
1
43
0.0
10
-52.649999999965033
20
-5.216666666626657
10
-49.649999999959633
20
-5.216666666626657
10
-49.64999999995964
20
25.216666666710413
10
-52.649999999962454
20
25.216666666710413
10
-52.649999999959874
20
55.65000000003905
10
-16.316666666626297
20
55.650000000038801
10
-16.316666666626336
20
58.650000000039924
10
17.016666666706975
20
58.65000000004563
10
17.016666666707021
20
55.650000000038801
10
53.350000000020842
20
55.650000000038808
10
53.350000000027237
20
25.216666666705262
10
50.35000000004036
20
25.216666666705262
10
50.350000000040382
20
-5.2166666666309114
10
53.35000000002276
20
-5.2166666666308847
10
53.350000000023726
20
-35.649999999986818
10
17.01666666670727
20
-35.649999999961175
10
17.01666666670728
20
-38.649999999961125
10
-16.316666666625899
20
-38.64999999996116
10
-16.31666666662591
20
-35.649999999961175
10
-52.649999999967577
20
-35.649999999959256
0
ENDSEC
0
SECTION
2
OBJECTS
0
DICTIONARY
5
C
100
AcDbDictionary
3
ACAD_GROUP
350
D
3
ACAD_MLINESTYLE
350
17
0
DICTIONARY
5
D
100
AcDbDictionary
0
DICTIONARY
5
1A
330
C
100
AcDbDictionary
0
DICTIONARY
5
17
100
AcDbDictionary
0
ENDSEC
0
EOF
